<svg width="205" height="49" viewBox="0 0 205 49" fill="none" xmlns="http://www.w3.org/2000/svg">
<path d="M25.2354 30.3549C25.2354 29.4536 24.9023 28.5915 24.2361 27.7686C23.5699 26.9065 22.3943 26.4166 20.7093 26.2991C19.6121 27.6314 18.2797 28.2976 16.7122 28.2976C15.3799 28.2976 14.2435 27.8273 13.303 26.8869C12.3625 25.9464 11.8923 24.7904 11.8923 23.4188C11.8923 22.0473 12.3625 20.8913 13.303 19.9508C14.2435 19.0103 15.3799 18.5401 16.7122 18.5401C17.4176 18.5401 18.1034 18.736 18.7696 19.1279C19.4749 19.5197 20.1019 19.99 20.6505 20.5386C21.5126 20.4994 22.1788 20.3623 22.649 20.1271C23.1193 19.892 23.4524 19.6177 23.6483 19.3042C23.8834 18.9515 24.0206 18.5597 24.0598 18.1286C24.099 17.6976 24.1186 17.2665 24.1186 16.8354V10.8986C24.1186 9.91897 23.8051 9.01767 23.1781 8.19475C22.5903 7.37183 21.5714 6.96036 20.1215 6.96036H7.83643L7.77765 45.7553C7.77765 46.5391 7.40537 47.1465 6.66082 47.5775C5.95546 47.9694 5.17172 48.1653 4.30961 48.1653C1.99759 48.1653 0.841579 47.2248 0.841579 45.3439V4.55037C0.841579 3.13965 1.19426 2.19916 1.89962 1.72892C2.64417 1.25868 3.52588 1.02356 4.54473 1.02356H21.591C22.6099 1.02356 23.6875 1.21949 24.8239 1.61136C25.9995 2.00323 27.0968 2.53225 28.1156 3.19843H28.0568C29.0757 3.94298 29.8202 4.92265 30.2905 6.13744C30.7999 7.35223 31.0546 8.76296 31.0546 10.3696V17.0118C31.0546 18.5793 30.7215 19.8724 30.0554 20.8913C29.3892 21.871 28.6838 22.6547 27.9393 23.2425C28.4487 23.556 28.9385 23.8891 29.4088 24.2418C29.879 24.5552 30.2709 24.9079 30.5844 25.2998C31.0938 25.8484 31.4857 26.495 31.76 27.2395C32.0735 27.9841 32.2302 28.8658 32.2302 29.8847V38.2902C32.2302 41.5035 30.9762 43.8744 28.4683 45.4026C27.2143 46.1864 26.0191 46.7742 24.8827 47.166C23.7855 47.5579 22.6882 47.7538 21.591 47.7538H12.8915C12.2254 47.7538 11.6963 47.4795 11.3045 46.9309C10.9518 46.3823 10.7754 45.6574 10.7754 44.7561C10.7754 42.7967 11.5984 41.817 13.2442 41.817H21.2971C22.747 41.817 23.7659 41.4056 24.3537 40.5827C24.9415 39.7597 25.2354 38.8388 25.2354 37.82V30.3549ZM72.7059 38.2902C72.7059 41.4644 71.6479 43.8352 69.5318 45.4026C68.5129 46.1472 67.4549 46.735 66.3577 47.166C65.2996 47.5579 64.2612 47.7538 63.2423 47.7538H50.4282C49.4094 47.7538 48.3513 47.5579 47.2541 47.166C46.196 46.735 45.1576 46.1472 44.1387 45.4026C43.1199 44.6189 42.3361 43.6588 41.7875 42.5224C41.2389 41.3468 40.9646 39.9361 40.9646 38.2902V3.55111C40.9646 1.67014 42.1206 0.729659 44.4326 0.729659C46.7838 0.729659 47.9594 1.67014 47.9594 3.55111V37.82C47.9594 38.8388 48.2533 39.7597 48.8412 40.5827C49.429 41.4056 50.4478 41.817 51.8977 41.817H61.7728C63.2227 41.817 64.2416 41.4056 64.8294 40.5827C65.4172 39.7597 65.7111 38.8388 65.7111 37.82V3.55111C65.7111 1.67014 66.8671 0.729659 69.1791 0.729659C71.5303 0.729659 72.7059 1.67014 72.7059 3.55111V38.2902ZM113.404 38.2902C113.404 41.4644 112.346 43.8352 110.23 45.4026C109.211 46.1472 108.153 46.735 107.056 47.166C105.998 47.5579 104.96 47.7538 103.941 47.7538H91.1266C90.1078 47.7538 89.0497 47.5579 87.9525 47.166C86.8945 46.735 85.856 46.1472 84.8372 45.4026C83.8183 44.6189 83.0346 43.6588 82.4859 42.5224C81.9373 41.3468 81.663 39.9361 81.663 38.2902V10.3696C81.663 8.80214 81.9373 7.43061 82.4859 6.255C83.0346 5.04021 83.8183 4.06054 84.8372 3.31599H84.7784C85.7972 2.64981 86.8553 2.1012 87.9525 1.67014C89.0497 1.23909 90.1078 1.02356 91.1266 1.02356H103.941C104.96 1.02356 106.018 1.23909 107.115 1.67014C108.212 2.1012 109.27 2.64981 110.289 3.31599H110.23C111.249 4.06054 112.033 5.04021 112.581 6.255C113.13 7.43061 113.404 8.80214 113.404 10.3696V14.4255C113.404 16.3064 112.229 17.2469 109.878 17.2469C107.566 17.2469 106.41 16.3064 106.41 14.4255V10.8986C106.41 9.91897 106.116 9.01767 105.528 8.19475C104.94 7.37183 103.921 6.96036 102.471 6.96036H92.5961C91.1462 6.96036 90.1274 7.37183 89.5396 8.19475C88.9518 9.01767 88.6579 9.91897 88.6579 10.8986V37.82C88.6579 38.8388 88.9518 39.7597 89.5396 40.5827C90.1274 41.4056 91.1462 41.817 92.5961 41.817H102.471C103.921 41.817 104.94 41.4056 105.528 40.5827C106.116 39.7597 106.41 38.8388 106.41 37.82V34.4107C106.41 32.569 107.566 31.6481 109.878 31.6481C112.229 31.6481 113.404 32.569 113.404 34.4107V38.2902ZM157.936 0.729659C159.19 0.729659 160.561 1.02356 162.051 1.61136C163.422 2.15998 164.108 3.19843 164.108 4.72672V45.2263C164.108 47.1073 162.952 48.0477 160.64 48.0477C158.328 48.0477 157.172 47.1073 157.172 45.2263V15.0133L155.467 14.8369L153.116 22.4783L146.062 45.9904C145.631 47.362 144.573 48.0282 142.888 47.989C142.144 47.9498 141.497 47.7538 140.948 47.4012C140.4 47.0485 140.028 46.5391 139.832 45.8729L135.599 32.1771C134.737 29.4732 133.875 26.7301 133.013 23.9479C132.151 21.1264 131.21 18.011 130.192 14.6018L128.487 14.8369V45.2263C128.487 47.1073 127.331 48.0477 125.019 48.0477C122.707 48.0477 121.551 47.1073 121.551 45.2263V4.72672C121.551 3.23761 122.237 2.19916 123.608 1.61136C125.058 1.02356 126.449 0.749252 127.782 0.788438C128.369 0.788438 128.977 0.866812 129.604 1.02356C130.231 1.18031 130.819 1.41543 131.367 1.72892C131.916 2.00323 132.406 2.37551 132.837 2.84575C133.268 3.2768 133.601 3.78623 133.836 4.37403L143.064 35.8215C143.731 33.5094 144.436 31.0015 145.181 28.2976C145.925 25.5937 146.689 22.8506 147.473 20.0684C148.257 17.2861 149.021 14.543 149.765 11.8391C150.549 9.09605 151.274 6.5489 151.94 4.19769C152.175 3.64908 152.509 3.15924 152.94 2.72819C153.371 2.29713 153.86 1.94445 154.409 1.67014C154.958 1.35665 155.526 1.12153 156.114 0.96478C156.741 0.808033 157.348 0.729659 157.936 0.729659ZM194.696 20.8325C195.714 20.8325 196.772 21.048 197.87 21.4791C198.967 21.9101 200.025 22.4783 201.044 23.1837H200.985C202.004 23.8891 202.788 24.8491 203.336 26.0639C203.885 27.2787 204.159 28.6699 204.159 30.2373V38.2902C204.159 41.4644 203.101 43.8352 200.985 45.4026C199.966 46.1472 198.908 46.735 197.811 47.166C196.753 47.5579 195.714 47.7538 194.696 47.7538H181.881C180.863 47.7538 179.805 47.5579 178.707 47.166C177.649 46.735 176.611 46.1472 175.592 45.4026C173.476 43.8352 172.418 41.4644 172.418 38.2902V34.4107C172.418 32.569 173.574 31.6481 175.886 31.6481C178.237 31.6481 179.413 32.569 179.413 34.4107V37.82C179.413 38.8388 179.707 39.7597 180.294 40.5827C180.882 41.4056 181.901 41.817 183.351 41.817H193.226C194.676 41.817 195.695 41.4056 196.283 40.5827C196.87 39.7597 197.164 38.8388 197.164 37.82V30.7076C197.164 29.7279 196.87 28.8266 196.283 28.0037C195.695 27.1416 194.676 26.7105 193.226 26.7105H181.881C179.844 26.7105 177.747 25.966 175.592 24.4769C173.476 22.831 172.418 20.4602 172.418 17.3645V10.3696C172.418 8.80214 172.692 7.43061 173.241 6.255C173.789 5.04021 174.573 4.06054 175.592 3.31599H175.533C176.552 2.64981 177.61 2.1012 178.707 1.67014C179.805 1.23909 180.863 1.02356 181.881 1.02356H194.696C195.714 1.02356 196.772 1.23909 197.87 1.67014C198.967 2.1012 200.025 2.64981 201.044 3.31599H200.985C202.004 4.06054 202.788 5.04021 203.336 6.255C203.885 7.43061 204.159 8.80214 204.159 10.3696V13.8377C204.159 15.6794 202.984 16.6003 200.632 16.6003C198.32 16.6003 197.164 15.6794 197.164 13.8377V10.8986C197.164 9.91897 196.87 9.01767 196.283 8.19475C195.695 7.37183 194.676 6.96036 193.226 6.96036H183.351C181.901 6.96036 180.882 7.37183 180.294 8.19475C179.707 9.01767 179.413 9.91897 179.413 10.8986V16.8942C179.413 17.9131 179.707 18.834 180.294 19.6569C180.882 20.4406 181.901 20.8325 183.351 20.8325H194.696Z" fill="#3715E1"/>
</svg>
