<svg width="100" height="100" viewBox="0 0 100 100" fill="none" xmlns="http://www.w3.org/2000/svg">
<circle cx="50" cy="50" r="50" fill="url(#paint0_linear_299_4699)"/>
<path d="M70.2743 28.604C71.8968 28.604 73.4455 29.2678 74.5763 30.374C75.7563 31.5786 76.3955 33.1273 76.3955 34.7498V40.699C76.3955 42.5182 75.5843 43.354 73.7405 43.354H69.0205V29.8578C69.0205 29.1694 69.5859 28.604 70.2743 28.604ZM70.2743 24.9165C67.5455 24.9165 65.333 27.129 65.333 29.8578V47.0415H73.7405C77.6247 47.0415 80.083 44.5832 80.083 40.699V34.7498C80.083 32.0457 78.9768 29.5873 77.2068 27.7928C75.3605 25.965 72.8721 24.9326 70.2743 24.9165Z" fill="#3715E1"/>
<path d="M43.2087 24.9165H40.7503C33.3753 24.9165 30.917 29.3169 30.917 34.7498V71.6248C30.917 73.6653 33.2278 74.8207 34.8503 73.5915L39.0541 70.4448C40.0374 69.7073 41.4141 69.8057 42.2991 70.6907L46.3799 74.7961C47.3387 75.7548 48.912 75.7548 49.8707 74.7961L54.0007 70.6661C54.8612 69.8057 56.2378 69.7073 57.1966 70.4448L61.4003 73.5915C63.0228 74.7961 65.3337 73.6407 65.3337 71.6248V29.8332C65.3337 27.129 67.5462 24.9165 70.2503 24.9165H43.2087ZM54.8857 46.4269H49.9691V51.3436C49.9691 52.3515 49.1332 53.1873 48.1253 53.1873C47.1174 53.1873 46.2816 52.3515 46.2816 51.3436V46.4269H41.3649C40.357 46.4269 39.5212 45.5911 39.5212 44.5832C39.5212 43.5753 40.357 42.7394 41.3649 42.7394H46.2816V37.8228C46.2816 36.8148 47.1174 35.979 48.1253 35.979C49.1332 35.979 49.9691 36.8148 49.9691 37.8228V42.7394H54.8857C55.8937 42.7394 56.7295 43.5753 56.7295 44.5832C56.7295 45.5911 55.8937 46.4269 54.8857 46.4269Z" fill="#3715E1"/>
<defs>
<linearGradient id="paint0_linear_299_4699" x1="56" y1="100" x2="20" y2="3.5" gradientUnits="userSpaceOnUse">
<stop stop-color="#FFD700"/>
<stop offset="1" stop-color="#FFD700" stop-opacity="0"/>
</linearGradient>
</defs>
</svg>
