<svg width="277" height="238" viewBox="0 0 277 238" fill="none" xmlns="http://www.w3.org/2000/svg">
<g clip-path="url(#clip0_299_4463)">
<path d="M69.3378 76.2739C69.3378 76.2739 39.8535 86.429 34.199 95.8028C28.5445 105.177 69.3378 76.2739 69.3378 76.2739Z" fill="#3715E1"/>
<path d="M18.3944 108.779C18.1893 108.795 17.9833 108.766 17.7904 108.694C17.5974 108.623 17.422 108.511 17.2759 108.367C16.3587 107.54 17.1083 105.978 17.7517 104.875C26.3777 90.0879 69.7499 74.5055 71.5916 73.8496L75.558 72.437L72.1617 74.9251C72.0362 75.0173 59.4185 84.253 46.5017 92.9542C26.4204 106.482 20.4584 108.779 18.3944 108.779ZM67.737 76.6134C56.3483 81.0216 25.6569 93.7645 18.8149 105.495C17.9037 107.056 18.0965 107.449 18.0989 107.452C18.2833 107.651 20.614 108.899 45.6643 92.0351C54.3967 86.1564 63.0119 80.0172 67.737 76.6134V76.6134Z" fill="#3F3D56"/>
<path d="M68.6984 66.131C68.6984 66.131 41.5275 63.338 33.2849 68.1109C25.0423 72.8839 68.6984 66.131 68.6984 66.131Z" fill="#3715E1"/>
<path d="M31.6722 70.6959C22.1614 70.6959 21.5084 69.1713 21.2093 68.4742C20.6116 67.0794 22.2749 65.7659 22.8216 65.3343C34.6151 56.0229 70.4365 65.4328 71.9557 65.8377L74.869 66.6147L71.8842 67.0409C71.764 67.058 59.7621 68.7652 47.6502 69.8338C40.5866 70.4571 35.4356 70.6959 31.6722 70.6959ZM40.0069 62.4906C33.3079 62.4906 27.1796 63.461 23.5844 66.2996C22.4996 67.1559 22.2305 67.7338 22.3404 67.9891C22.6161 68.6319 25.2478 70.5757 47.5421 68.6084C55.8497 67.8753 64.1051 66.8412 68.4896 66.2612C62.8719 64.9682 50.7108 62.4906 40.0069 62.4906Z" fill="#3F3D56"/>
<path d="M76.4735 61.3457C76.4735 61.3457 62.8066 28.5298 66.118 25.2816C69.4293 22.0333 76.4735 61.3457 76.4735 61.3457Z" fill="#3715E1"/>
<path d="M77.2296 64.2324L75.5302 59.8903C75.4887 59.7839 71.3307 49.1327 67.9043 38.1669C60.8467 15.5831 63.7397 13.6545 64.69 13.0208C64.9245 12.8527 65.2001 12.7511 65.4876 12.7269C65.7752 12.7026 66.0639 12.7565 66.3233 12.8829C71.6539 15.3668 76.2126 55.0784 76.7148 59.5983L77.2296 64.2324ZM65.6259 13.9522C65.534 13.9567 65.4457 13.9888 65.3724 14.0444C61.976 16.3087 68.8612 38.6015 74.9139 54.8273C72.8379 38.0966 69.015 15.4945 65.8037 13.9978C65.7485 13.9696 65.6878 13.954 65.6259 13.9522Z" fill="#3F3D56"/>
<path d="M81.6392 68.5622C81.6392 68.5622 88.9746 35.3926 96.6593 35.3926C104.344 35.3926 81.6392 68.5622 81.6392 68.5622Z" fill="#3715E1"/>
<path d="M79.7046 70.8506L80.4302 68.1196C80.9631 66.1168 93.6288 19.0684 107.475 19.0684C109.373 19.0684 110.192 19.9589 110.545 20.7059C114.237 28.5248 84.8616 64.5826 81.5001 68.6683L79.7046 70.8506ZM107.475 20.2986C96.4232 20.2986 85.4376 55.2286 82.4251 65.581C92.3373 53.2658 112.094 26.8687 109.433 21.2312C109.323 21.0005 108.992 20.2986 107.475 20.2986Z" fill="#3F3D56"/>
<path d="M85.9453 68.8926C85.9453 68.8926 111.165 52.9558 162.835 57.8206C214.504 62.6854 85.9453 68.8926 85.9453 68.8926Z" fill="#3715E1"/>
<path d="M84.2251 69.5578L85.5454 68.4261C85.8127 68.1969 92.242 62.7624 105.124 58.392C116.978 54.3694 136.739 50.5802 163.558 55.3702C174.889 57.3937 176.36 58.9014 176.262 60.2293C176.164 61.5412 175.936 64.6138 130.664 67.4623C108.541 68.8541 86.1864 69.5016 85.9629 69.5079L84.2251 69.5578ZM139.218 54.3631C110.086 54.3631 92.8637 64.7141 87.8701 68.2182C93.7816 68.029 112.266 67.3872 130.589 66.2341C172.657 63.5872 174.994 60.6918 175.034 60.1382C175.039 60.0791 175.008 58.6644 163.342 56.5812C155.382 55.1316 147.309 54.3893 139.218 54.3631Z" fill="#3F3D56"/>
<path d="M101.938 70.7619C101.938 70.7619 146.114 70.1722 148.596 74.8893C151.078 79.6063 101.938 70.7619 101.938 70.7619Z" fill="#3715E1"/>
<path d="M154.254 82.8151C140.153 82.8151 106.259 72.6901 101.761 71.3268L98.0742 70.2098L101.925 70.1233C107.576 69.9969 157.224 69.1709 160.347 79.1662C160.717 80.3502 160.288 81.1098 159.863 81.5387C158.974 82.4352 156.985 82.8151 154.254 82.8151ZM105.969 71.2971C126.69 77.3701 155.462 84.2319 158.989 80.6725C159.18 80.4796 159.374 80.176 159.173 79.5332C156.954 72.4321 123.093 71.1808 105.969 71.2971Z" fill="#3F3D56"/>
<path d="M93.3271 75.6592C93.3271 75.6592 120.01 87.992 114.796 91.7867C109.582 95.5814 93.3271 75.6592 93.3271 75.6592Z" fill="#3715E1"/>
<path d="M131.421 106.708C118.514 106.708 92.2332 75.6626 91.0108 74.2098L89.2808 72.1533L91.7334 73.2526C93.5229 74.0548 135.572 93.009 136.493 102.503C136.615 103.762 136.062 104.863 134.895 105.687C133.873 106.385 132.657 106.742 131.421 106.708ZM93.7638 75.5307C103.912 87.1738 126.491 110.115 134.185 104.682C135.004 104.104 135.348 103.449 135.268 102.622C134.606 95.7956 107.128 81.7203 93.7638 75.5307Z" fill="#3F3D56"/>
<path d="M137.615 90.4219C137.615 90.4219 159.759 99.6486 154.838 105.8C149.918 111.951 137.615 90.4219 137.615 90.4219Z" fill="#3715E1"/>
<path d="M96.4023 83.0405C96.4023 83.0405 142.536 133.48 138.23 136.556C133.924 139.631 96.4023 83.0405 96.4023 83.0405Z" fill="#3715E1"/>
<path d="M87.791 79.3501C87.791 79.3501 107.214 111.7 103.25 114.845C99.2865 117.99 87.791 79.3501 87.791 79.3501Z" fill="#3715E1"/>
<path d="M109.776 126.962C109.533 126.961 109.293 126.92 109.063 126.843C101.943 124.504 87.5908 82.4846 85.9779 77.7009L84.5435 73.4468L87.0694 77.1585C87.1445 77.2693 94.6941 88.3813 101.394 99.8772C113.779 121.129 112.752 125.308 110.903 126.603C110.574 126.837 110.18 126.963 109.776 126.962ZM88.7081 81.8391C93.9432 96.6998 104.482 124.043 109.447 125.674C109.569 125.726 109.701 125.745 109.833 125.731C109.964 125.717 110.089 125.67 110.197 125.595C111.214 124.883 112.287 121.014 100.333 100.501C96.0925 93.2239 91.508 86.0984 88.7081 81.8391H88.7081Z" fill="#3F3D56"/>
<path d="M79.5732 78.1196C79.5732 78.1196 62.092 129.702 72.8191 129.17C83.5462 128.638 79.5732 78.1196 79.5732 78.1196Z" fill="#3715E1"/>
<path d="M68.4674 137.791C66.5849 137.791 65.1372 137.055 64.1616 135.601C57.241 125.286 77.7422 79.797 78.618 77.8655L79.5533 75.8042L79.79 78.0553C79.984 79.8973 84.4238 123.307 74.3663 134.904C72.7763 136.736 70.8847 137.706 68.7444 137.785C68.6513 137.789 68.5587 137.791 68.4674 137.791ZM78.7826 80.5413C74.7297 89.8605 59.46 126.386 65.1834 134.916C65.9631 136.079 67.1129 136.617 68.6987 136.556C70.5104 136.489 72.0602 135.684 73.437 134.097C81.8444 124.403 79.5731 89.9077 78.7826 80.5413Z" fill="#3F3D56"/>
<path d="M73.5362 80.6836C73.5362 80.6836 44.1923 114.246 46.8778 117.781C49.5633 121.315 73.5362 80.6836 73.5362 80.6836Z" fill="#3715E1"/>
<path d="M38.0488 130.016C37.6602 130.022 37.281 129.897 36.973 129.66C36.7638 129.49 36.5934 129.277 36.473 129.036C36.3527 128.795 36.2851 128.531 36.2749 128.261C35.5379 119.924 74.5983 76.4777 76.261 74.6324L80.1932 70.2695L77.2504 75.3523C75.9961 77.5185 46.4454 128.42 38.4879 129.971C38.3433 130 38.1963 130.015 38.0488 130.016ZM73.0257 80.1186C60.0842 94.8165 36.9886 122.365 37.5004 128.153C37.4959 128.254 37.5141 128.354 37.5536 128.447C37.5931 128.54 37.6529 128.622 37.7286 128.689C37.8044 128.741 37.891 128.774 37.9818 128.787C38.0726 128.8 38.1652 128.792 38.2524 128.764C43.7518 127.692 62.9628 97.0538 73.0257 80.1186H73.0257Z" fill="#3F3D56"/>
<path d="M64.7282 58.0837C64.7282 58.0837 39.1453 27.8645 15.4882 30.7932C-8.16884 33.7218 64.7282 58.0837 64.7282 58.0837Z" fill="#3715E1"/>
<path d="M68.1381 59.4959L66.1246 59.0357C65.963 58.9988 49.794 55.2904 33.8082 50.5596C1.07377 40.8724 0.96805 36.418 0.933826 34.9544C0.891777 33.1883 2.68967 31.8223 6.43022 30.7783C20.3117 26.9035 35.9858 34.536 46.6866 41.6227C53.8725 46.4257 60.5764 51.9133 66.7043 58.0088L68.1381 59.4959ZM14.3744 30.957C11.8025 30.944 9.2408 31.2826 6.76057 31.9635C3.77029 32.7979 2.13818 33.8497 2.16343 34.9252C2.30339 40.831 38.606 51.3621 64.2786 57.3469C58.2098 51.5252 35.2817 30.957 14.3744 30.957H14.3744Z" fill="#3F3D56"/>
<path d="M44.7332 55.9753C44.7332 55.9753 10.9019 53.5148 13.3624 59.666C15.8228 65.8171 44.7332 55.9753 44.7332 55.9753Z" fill="#3715E1"/>
<path d="M53.3447 33.2164C53.3447 33.2164 51.4994 24.6048 48.4238 26.4501C45.3482 28.2955 53.3447 33.2164 53.3447 33.2164Z" fill="#3715E1"/>
<path d="M84.5098 39.3093C84.5098 39.3093 92.9504 3.84092 89.1249 3.7108C85.2994 3.58068 84.5098 39.3093 84.5098 39.3093Z" fill="#3715E1"/>
<path d="M82.9394 47.1623L82.8703 42.4519C82.8481 40.9391 82.3789 5.34351 87.0067 0.646654C87.1835 0.449033 87.3989 0.289707 87.6396 0.178494C87.8803 0.0672805 88.1412 0.00653414 88.4063 0C88.6636 0.00105024 88.917 0.0627027 89.1459 0.179957C89.3749 0.297211 89.573 0.466768 89.7243 0.674885C93.2852 5.23598 85.0346 38.782 84.0819 42.5922L82.9394 47.1623ZM88.4063 1.23023C88.3451 1.23023 88.1588 1.23023 87.8831 1.51016C84.8268 4.61216 84.1173 25.2482 84.0759 37.3844C87.4638 22.9232 90.9166 4.20068 88.7547 1.43207C88.7186 1.37162 88.6676 1.32137 88.6066 1.28606C88.5457 1.25075 88.4768 1.23153 88.4063 1.23023Z" fill="#3F3D56"/>
<path d="M123.467 44.2884C123.467 44.2884 127.157 35.0617 130.848 37.5222C134.539 39.9826 123.467 44.2884 123.467 44.2884Z" fill="#3715E1"/>
<path d="M88.4066 126.099C88.4066 126.099 83.4857 162.39 92.7124 161.775C101.939 161.16 88.4066 126.099 88.4066 126.099Z" fill="#3715E1"/>
<path d="M114.146 117.845C114.146 117.845 109.431 109.987 109.431 104.487C109.431 104.487 101.18 95.8431 103.538 93.4857C105.895 91.1283 111.003 100.165 111.003 100.165C111.003 100.165 101.573 89.5567 104.324 87.9851C107.074 86.4135 116.111 98.2005 116.111 98.2005L119.254 96.6289C119.254 96.6289 112.578 80.1626 117.289 79.7342C119.45 79.5378 124.361 95.4502 124.361 95.4502L129.469 108.416C129.469 108.416 131.434 113.131 130.648 115.881C130.169 117.563 129.776 119.267 129.469 120.989L114.146 117.845Z" fill="#FFB9B9"/>
<path opacity="0.1" d="M126.327 119.81C126.327 119.81 129.077 115.488 128.081 108.889C127.086 102.289 121.612 98.5933 121.612 98.5933C121.612 98.5933 118.076 101.344 121.612 108.416C121.612 108.416 117.29 112.345 120.826 118.631" fill="black"/>
<path d="M127.898 119.81C127.898 119.81 130.649 115.488 129.653 108.889C128.658 102.289 123.184 98.5933 123.184 98.5933C123.184 98.5933 119.647 101.344 123.184 108.416C123.184 108.416 118.862 112.345 122.398 118.631" fill="#FFB9B9"/>
<path opacity="0.1" d="M117.094 98.0041L114.933 94.6644C114.933 94.6644 104.717 93.0928 105.896 96.6289C107.075 100.165 111.789 98.5934 111.789 98.5934L114.54 101.344L117.094 98.0041Z" fill="black"/>
<path d="M118.861 97.8071L115.718 93.4852C115.718 93.4852 105.502 91.9136 106.681 95.4497C107.86 98.9858 112.575 97.4142 112.575 97.4142L115.325 100.165L118.861 97.8071Z" fill="#FFB9B9"/>
<path d="M191.744 149.473L189.78 165.189L220.426 167.154V148.295L191.744 149.473Z" fill="#FFB9B9"/>
<path d="M276.611 237.483L251.758 187.777C250.273 182.86 245.637 174.853 231.231 169.708L220.427 160.568L212.372 160.278L180.154 155.564C180.154 155.564 155.402 153.992 139.293 163.815L134.971 161.85C134.971 161.85 127.899 136.705 131.042 118.631L112.969 117.06C112.969 117.06 103.146 159.886 107.861 172.851C112.576 185.817 129.863 195.246 129.863 195.246L145.186 210.569L151.08 237.287H243.018L244.481 230.277L251.662 237.287L276.611 237.483Z" fill="#CFCCE0"/>
<path d="M241.861 148.297C212.915 156.114 184.464 156.666 156.615 148.418C153.342 147.448 151.104 144.574 151.104 141.311V59.9593C151.104 56.3192 153.873 53.2141 157.648 52.6221C183.919 48.5022 211.75 48.8213 240.858 52.7759C244.704 53.2985 247.559 56.4392 247.559 60.1361V141.139C247.559 144.47 245.228 147.388 241.861 148.297Z" fill="#CFCCE0"/>
<path d="M182.165 92.6276C182.165 92.6276 175.507 82.897 179.604 80.3363C183.701 77.7756 189.847 84.9455 189.847 84.9455C189.847 84.9455 197.529 78.2877 201.626 80.8484C205.723 83.4091 197.529 92.6276 197.529 92.6276C197.529 92.6276 203.675 94.164 204.187 98.2612C204.699 102.358 206.747 113.113 198.041 113.625C193.377 113.9 190.77 112.557 189.356 111.252C188.841 110.79 188.176 110.531 187.484 110.523C186.793 110.515 186.122 110.758 185.596 111.207C182.644 113.694 177.327 116.562 173.458 109.528C171.922 98.7733 182.165 92.6276 182.165 92.6276Z" fill="#3F3D56"/>
<path d="M231.33 93.652C231.33 93.652 237.988 83.9214 233.891 81.3607C229.794 78.8 223.648 85.9699 223.648 85.9699C223.648 85.9699 215.966 79.3121 211.869 81.8728C207.772 84.4335 215.966 93.652 215.966 93.652C215.966 93.652 209.82 95.1885 209.308 99.2856C208.796 103.383 206.747 114.138 215.454 114.65C220.118 114.924 222.724 113.582 224.139 112.276C224.654 111.814 225.319 111.556 226.011 111.547C226.702 111.539 227.373 111.782 227.899 112.232C230.851 114.719 236.168 117.586 240.037 110.553C241.573 99.7977 231.33 93.652 231.33 93.652Z" fill="#3F3D56"/>
<path d="M174.082 120.246C174.082 120.246 183.689 127.981 204.175 127.494C224.662 127.006 231.287 126.17 235.666 121.341C240.044 116.512 241.342 122.089 239.983 125.745C238.623 129.401 236.877 135.639 226.671 136.65C219.952 137.316 205.431 137.473 196.292 137.504C189.189 137.562 182.165 136 175.757 132.935C175.672 132.894 175.588 132.853 175.504 132.812C173.56 131.851 171.923 130.367 170.778 128.525C169.634 126.684 169.027 124.559 169.026 122.391C169.027 120.668 169.33 119.737 170.451 119.398C172.473 118.787 174.082 120.246 174.082 120.246Z" fill="#3F3D56"/>
<path d="M203.47 155.684C187.812 155.692 172.244 153.33 157.293 148.679C155.443 148.112 153.825 146.966 152.676 145.41C151.528 143.853 150.91 141.969 150.914 140.035V44.7302C150.908 42.5845 151.667 40.5068 153.056 38.8708C154.444 37.2348 156.371 36.1478 158.489 35.8051C186.703 31.1548 217.945 31.2151 251.346 35.9843C253.497 36.3019 255.462 37.3798 256.885 39.0225C258.308 40.6652 259.095 42.7638 259.103 44.9373V139.833C259.095 141.803 258.448 143.717 257.258 145.287C256.069 146.857 254.402 147.999 252.508 148.54C236.152 153.182 219.982 155.584 204.448 155.681C204.123 155.683 203.795 155.684 203.47 155.684ZM202.382 33.0296C187.718 32.9807 173.074 34.1293 158.597 36.4642C156.636 36.7815 154.851 37.7883 153.565 39.3035C152.279 40.8186 151.576 42.7429 151.582 44.7302V140.035C151.578 141.826 152.151 143.572 153.215 145.013C154.279 146.455 155.778 147.516 157.491 148.041C187.342 157.333 219.248 157.285 252.326 147.898L252.417 148.219L252.326 147.898C254.08 147.396 255.624 146.339 256.726 144.885C257.828 143.43 258.428 141.658 258.435 139.833V44.9373C258.428 42.9243 257.699 40.9807 256.381 39.4593C255.063 37.9379 253.243 36.9395 251.252 36.6453C235.068 34.2875 218.737 33.0792 202.382 33.0296V33.0296Z" fill="#3F3D56"/>
<path d="M200.33 47.1602C192.973 47.1602 186.677 46.8302 181.522 46.3829C165.309 44.9767 156.572 42.1385 156.486 42.11L156.695 41.4758C156.781 41.5041 165.465 44.3225 181.611 45.7203C196.513 47.0108 221.002 47.3196 253.032 41.4644L253.152 42.1214C232.109 45.968 214.308 47.1602 200.33 47.1602Z" fill="#3F3D56"/>
</g>
<defs>
<clipPath id="clip0_299_4463">
<rect width="275.677" height="237.483" fill="white" transform="translate(0.932617)"/>
</clipPath>
</defs>
</svg>
