<svg width="101" height="100" viewBox="0 0 101 100" fill="none" xmlns="http://www.w3.org/2000/svg">
<circle cx="50.3301" cy="50" r="50" fill="url(#paint0_linear_299_4706)"/>
<path d="M60.1224 25.9165H41.5374C32.2449 25.9165 29.9341 28.3994 29.9341 38.3065V65.9873C29.9341 72.5265 33.5232 74.0753 37.8745 69.4044L37.8991 69.3798C39.9149 67.2411 42.9878 67.4132 44.7333 69.7486L47.2162 73.0673C49.2074 75.6978 52.4278 75.6978 54.4191 73.0673L56.902 69.7486C58.672 67.3886 61.7449 67.2165 63.7607 69.3798C68.1366 74.0507 71.7012 72.5019 71.7012 65.9628V38.3065C71.7257 28.3994 69.4149 25.9165 60.1224 25.9165ZM57.8116 45.5586L56.5824 46.8123H56.5578L49.1091 54.2611C48.7895 54.5807 48.1257 54.9248 47.6587 54.974L44.3399 55.4657C43.1353 55.6378 42.2995 54.7773 42.4716 53.5973L42.9387 50.254C43.0124 49.7869 43.332 49.1478 43.6516 48.8036L51.1249 41.3548L52.3541 40.1011C53.1653 39.2898 54.0749 38.6998 55.0583 38.6998C55.8941 38.6998 56.8037 39.0932 57.8116 40.1011C60.0241 42.3136 59.3112 44.059 57.8116 45.5586Z" fill="#3715E1"/>
<defs>
<linearGradient id="paint0_linear_299_4706" x1="66.3301" y1="100" x2="21.8301" y2="3.49999" gradientUnits="userSpaceOnUse">
<stop stop-color="#FFD700"/>
<stop offset="1" stop-color="#FFD700" stop-opacity="0"/>
</linearGradient>
</defs>
</svg>
