<svg width="197" height="103" viewBox="0 0 197 103" fill="none" xmlns="http://www.w3.org/2000/svg">
<path d="M31.9497 55.7408C31.9497 54.9507 31.6577 54.1948 31.0736 53.4734C30.4896 52.7175 29.4589 52.2881 27.9816 52.185C27.0196 53.3531 25.8515 53.9372 24.4773 53.9372C23.3092 53.9372 22.3129 53.5249 21.4883 52.7003C20.6638 51.8758 20.2515 50.8623 20.2515 49.6598C20.2515 48.4574 20.6638 47.4439 21.4883 46.6193C22.3129 45.7948 23.3092 45.3825 24.4773 45.3825C25.0957 45.3825 25.6969 45.5543 26.281 45.8979C26.8994 46.2414 27.4491 46.6537 27.9301 47.1347C28.6859 47.1003 29.27 46.9801 29.6822 46.7739C30.0945 46.5678 30.3865 46.3273 30.5583 46.0525C30.7644 45.7433 30.8847 45.3997 30.919 45.0218C30.9534 44.6439 30.9706 44.266 30.9706 43.888V38.6831C30.9706 37.8242 30.6957 37.034 30.146 36.3126C29.6307 35.5911 28.7374 35.2303 27.4663 35.2303H16.6957L16.6441 69.2427C16.6441 69.9299 16.3178 70.4624 15.665 70.8403C15.0466 71.1839 14.3595 71.3556 13.6036 71.3556C11.5766 71.3556 10.5631 70.5311 10.5631 68.882V33.1175C10.5631 31.8806 10.8723 31.0561 11.4908 30.6438C12.1435 30.2316 12.9165 30.0254 13.8098 30.0254H28.7546C29.6479 30.0254 30.5927 30.1972 31.589 30.5408C32.6197 30.8843 33.5816 31.3481 34.4749 31.9322H34.4234C35.3166 32.5849 35.9694 33.4438 36.3816 34.5089C36.8283 35.5739 37.0516 36.8107 37.0516 38.2193V44.0426C37.0516 45.4169 36.7596 46.5506 36.1755 47.4439C35.5915 48.3028 34.9731 48.9899 34.3203 49.5052C34.7669 49.7801 35.1964 50.0721 35.6086 50.3813C36.0209 50.6562 36.3645 50.9654 36.6393 51.3089C37.0859 51.7899 37.4295 52.3568 37.67 53.0096C37.9448 53.6623 38.0823 54.4353 38.0823 55.3286V62.6979C38.0823 65.5151 36.9829 67.5937 34.7841 68.9335C33.6847 69.6207 32.6368 70.136 31.6405 70.4796C30.6786 70.8231 29.7166 70.9949 28.7546 70.9949H21.1276C20.5435 70.9949 20.0797 70.7544 19.7362 70.2734C19.427 69.7924 19.2724 69.1568 19.2724 68.3667C19.2724 66.6489 19.9939 65.79 21.4368 65.79H28.497C29.7681 65.79 30.6614 65.4292 31.1767 64.7078C31.6921 63.9863 31.9497 63.1789 31.9497 62.2857V55.7408ZM73.5682 62.6979C73.5682 65.4808 72.6406 67.5593 70.7854 68.9335C69.8921 69.5863 68.9645 70.1016 68.0025 70.4796C67.0749 70.8231 66.1645 70.9949 65.2712 70.9949H54.0368C53.1436 70.9949 52.216 70.8231 51.254 70.4796C50.3264 70.1016 49.416 69.5863 48.5227 68.9335C47.6295 68.2464 46.9423 67.4047 46.4614 66.4084C45.9804 65.3777 45.7399 64.1409 45.7399 62.6979V32.2414C45.7399 30.5923 46.7534 29.7677 48.7804 29.7677C50.8417 29.7677 51.8724 30.5923 51.8724 32.2414V62.2857C51.8724 63.1789 52.1301 63.9863 52.6454 64.7078C53.1608 65.4292 54.054 65.79 55.3252 65.79H63.9829C65.2541 65.79 66.1473 65.4292 66.6627 64.7078C67.178 63.9863 67.4357 63.1789 67.4357 62.2857V32.2414C67.4357 30.5923 68.4492 29.7677 70.4762 29.7677C72.5375 29.7677 73.5682 30.5923 73.5682 32.2414V62.6979ZM109.249 62.6979C109.249 65.4808 108.322 67.5593 106.467 68.9335C105.573 69.5863 104.646 70.1016 103.684 70.4796C102.756 70.8231 101.846 70.9949 100.952 70.9949H89.7181C88.8248 70.9949 87.8972 70.8231 86.9352 70.4796C86.0076 70.1016 85.0972 69.5863 84.2039 68.9335C83.3107 68.2464 82.6236 67.4047 82.1426 66.4084C81.6616 65.3777 81.4211 64.1409 81.4211 62.6979V38.2193C81.4211 36.8451 81.6616 35.6426 82.1426 34.6119C82.6236 33.5469 83.3107 32.688 84.2039 32.0352H84.1524C85.0456 31.4512 85.9733 30.9702 86.9352 30.5923C87.8972 30.2144 88.8248 30.0254 89.7181 30.0254H100.952C101.846 30.0254 102.773 30.2144 103.735 30.5923C104.697 30.9702 105.625 31.4512 106.518 32.0352H106.467C107.36 32.688 108.047 33.5469 108.528 34.6119C109.009 35.6426 109.249 36.8451 109.249 38.2193V41.7752C109.249 43.4242 108.219 44.2488 106.157 44.2488C104.13 44.2488 103.117 43.4242 103.117 41.7752V38.6831C103.117 37.8242 102.859 37.034 102.344 36.3126C101.829 35.5911 100.935 35.2303 99.6641 35.2303H91.0064C89.7352 35.2303 88.842 35.5911 88.3266 36.3126C87.8113 37.034 87.5536 37.8242 87.5536 38.6831V62.2857C87.5536 63.1789 87.8113 63.9863 88.3266 64.7078C88.842 65.4292 89.7352 65.79 91.0064 65.79H99.6641C100.935 65.79 101.829 65.4292 102.344 64.7078C102.859 63.9863 103.117 63.1789 103.117 62.2857V59.2967C103.117 57.682 104.13 56.8746 106.157 56.8746C108.219 56.8746 109.249 57.682 109.249 59.2967V62.6979ZM148.291 29.7677C149.391 29.7677 150.593 30.0254 151.899 30.5408C153.101 31.0217 153.702 31.9322 153.702 33.2721V68.7789C153.702 70.428 152.689 71.2526 150.662 71.2526C148.635 71.2526 147.621 70.428 147.621 68.7789V42.2905L146.127 42.1359L144.065 48.8353L137.881 69.4489C137.503 70.6513 136.576 71.2354 135.099 71.201C134.446 71.1667 133.879 70.9949 133.398 70.6857C132.917 70.3765 132.591 69.9299 132.419 69.3458L128.708 57.3384C127.952 54.9678 127.197 52.5629 126.441 50.1237C125.685 47.65 124.86 44.9187 123.967 41.9298L122.473 42.1359V68.7789C122.473 70.428 121.459 71.2526 119.432 71.2526C117.405 71.2526 116.392 70.428 116.392 68.7789V33.2721C116.392 31.9665 116.993 31.0561 118.195 30.5408C119.467 30.0254 120.686 29.7849 121.854 29.8193C122.37 29.8193 122.902 29.888 123.452 30.0254C124.002 30.1628 124.517 30.369 124.998 30.6438C125.479 30.8843 125.908 31.2107 126.286 31.623C126.664 32.0009 126.956 32.4475 127.162 32.9628L135.253 60.5335C135.837 58.5065 136.456 56.3077 137.108 53.9372C137.761 51.5666 138.431 49.1617 139.118 46.7224C139.805 44.2831 140.475 41.8782 141.128 39.5077C141.815 37.1027 142.451 34.8696 143.035 32.8082C143.241 32.3273 143.533 31.8978 143.911 31.5199C144.289 31.142 144.718 30.8328 145.199 30.5923C145.68 30.3174 146.178 30.1113 146.694 29.9739C147.243 29.8365 147.776 29.7677 148.291 29.7677ZM180.519 47.3924C181.412 47.3924 182.34 47.5813 183.302 47.9592C184.264 48.3371 185.192 48.8353 186.085 49.4537H186.033C186.927 50.0721 187.614 50.9138 188.095 51.9789C188.576 53.0439 188.816 54.2635 188.816 55.6378V62.6979C188.816 65.4808 187.889 67.5593 186.033 68.9335C185.14 69.5863 184.212 70.1016 183.251 70.4796C182.323 70.8231 181.412 70.9949 180.519 70.9949H169.285C168.392 70.9949 167.464 70.8231 166.502 70.4796C165.574 70.1016 164.664 69.5863 163.771 68.9335C161.915 67.5593 160.988 65.4808 160.988 62.6979V59.2967C160.988 57.682 162.001 56.8746 164.028 56.8746C166.09 56.8746 167.12 57.682 167.12 59.2967V62.2857C167.12 63.1789 167.378 63.9863 167.893 64.7078C168.409 65.4292 169.302 65.79 170.573 65.79H179.231C180.502 65.79 181.395 65.4292 181.911 64.7078C182.426 63.9863 182.684 63.1789 182.684 62.2857V56.0501C182.684 55.1912 182.426 54.401 181.911 53.6795C181.395 52.9237 180.502 52.5457 179.231 52.5457H169.285C167.498 52.5457 165.66 51.893 163.771 50.5875C161.915 49.1445 160.988 47.066 160.988 44.3518V38.2193C160.988 36.8451 161.228 35.6426 161.709 34.6119C162.19 33.5469 162.877 32.688 163.771 32.0352H163.719C164.612 31.4512 165.54 30.9702 166.502 30.5923C167.464 30.2144 168.392 30.0254 169.285 30.0254H180.519C181.412 30.0254 182.34 30.2144 183.302 30.5923C184.264 30.9702 185.192 31.4512 186.085 32.0352H186.033C186.927 32.688 187.614 33.5469 188.095 34.6119C188.576 35.6426 188.816 36.8451 188.816 38.2193V41.2598C188.816 42.8745 187.786 43.6819 185.724 43.6819C183.697 43.6819 182.684 42.8745 182.684 41.2598V38.6831C182.684 37.8242 182.426 37.034 181.911 36.3126C181.395 35.5911 180.502 35.2303 179.231 35.2303H170.573C169.302 35.2303 168.409 35.5911 167.893 36.3126C167.378 37.034 167.12 37.8242 167.12 38.6831V43.9396C167.12 44.8328 167.378 45.6402 167.893 46.3617C168.409 47.0488 169.302 47.3924 170.573 47.3924H180.519Z" fill="white"/>
<path d="M27.9138 6.98633L15.0303 19.8698" stroke="#3715E1" stroke-width="2.14725" stroke-linecap="round" stroke-linejoin="round"/>
<path d="M15.0303 6.98633L27.9138 19.8698" stroke="#3715E1" stroke-width="2.14725" stroke-linecap="round" stroke-linejoin="round"/>
<path d="M190.03 13.4287L177.146 26.3122" stroke="#FFD700" stroke-width="2.14725" stroke-linecap="round" stroke-linejoin="round"/>
<path d="M177.146 13.4287L190.03 26.3122" stroke="#FFD700" stroke-width="2.14725" stroke-linecap="round" stroke-linejoin="round"/>
<path d="M189.494 91.2661L181.979 98.7815" stroke="#3715E1" stroke-width="1.07362" stroke-linecap="round" stroke-linejoin="round"/>
<path d="M181.979 91.2661L189.494 98.7815" stroke="#3715E1" stroke-width="1.07362" stroke-linecap="round" stroke-linejoin="round"/>
<path d="M14.4937 76.2358L4.83105 85.8985" stroke="#FFD700" stroke-width="1.61044" stroke-linecap="round" stroke-linejoin="round"/>
<path d="M4.83105 76.2358L14.4937 85.8985" stroke="#FFD700" stroke-width="1.61044" stroke-linecap="round" stroke-linejoin="round"/>
</svg>
